<?xml version="1.0" encoding="UTF-8"?>
<!--
  Header brandmark — the favicon emblem with a TRANSPARENT background.
  Identical to favicon.svg except the cream disc (.st1 fill #f7f4ee) is set to
  `none` so the mark reads cleanly over any header background. Keep in sync with
  public/favicon.svg if the source artwork changes.
-->
<svg id="Layer_1" xmlns="http://www.w3.org/2000/svg" version="1.1" viewBox="0 0 441.05 441.73">
  <defs>
    <style>
      .st0 {
        fill: #f7f1d7;
      }

      .st1 {
        fill: none;
      }

      .st2 {
        fill: #2f7da3;
      }

      .st3 {
        fill: none;
        stroke: #143f33;
        stroke-linecap: round;
        stroke-miterlimit: 10;
        stroke-width: 16px;
      }
    </style>
  </defs>
  <g id="Generative_Object">
    <g>
      <path class="st1" d="M210.23,8.14l.87-.14,23.45.24c8.22.08,15.95,5.27,17.37,13.62l5.33,31.37c.53,3.11,1.53,4.64,4.75,5.47,15.24,3.94,29.38,10.09,42.81,18.34,1.21.74,2.73,1.63,3.78,1.52,1.13-.12,2.61-.97,3.77-1.8l26.27-18.78c6.45-4.61,15.27-4.5,21.13,1.33l22.16,22.04c6.09,6.06,5.68,15.64.75,22.23l-18.76,25.11c-1.66,2.22-2.47,4.41-.95,7.06,7.7,13.43,13.24,27.66,16.89,42.77.8,3.31,2.26,5.17,5.69,5.72l33.73,5.36c6.82,1.08,13.6,6.81,13.63,14.25l.13,32.94c.03,7.77-6.41,14-13.83,15.16l-33.12,5.19c-3.96.62-5.56,2.09-6.62,6.03-3.92,14.56-9.81,28.31-17.7,41.09-1.34,2.17-.7,3.99.64,5.85l20.72,28.61c4.35,6.01,4.55,15-.84,20.46l-22.05,22.34c-5.97,6.05-16.04,6.28-22.69,1.26l-26.89-20.32c-2.75-2.08-5.12-2.17-8.16-.38-14.17,8.34-29.19,14.56-44.91,17.84l-.53.27-.52,9.96-4.63,29.09c-1.33,8.35-8.85,13.33-16.72,14.22-3.11.35-5.67-.02-8.62.04l-12,.25-7.34-.26c-10.36-.37-17.33-7.66-18.82-17.61l-3.93-26.3c-.48-3.18.35-6.28-.71-9.6-15.94-3.3-30.64-9.48-44.66-17.62-3.17-1.84-5.73-2.22-8.73.07l-25.05,19.14c-7.01,5.36-17.28,7.08-23.96.35l-22.59-22.75c-5.19-5.23-5.31-14.13-1.15-19.9l21.04-29.14c1.32-1.83,1.96-3.75.64-5.88-7.93-12.8-13.79-26.5-17.7-41.08-1.05-3.92-2.72-5.41-6.64-6.03l-33.13-5.19c-7.41-1.16-13.86-7.36-13.83-15.17l.13-32.93c.03-7.44,6.81-13.15,13.63-14.25l34.3-5.52c2.87-.46,4.28-2.21,4.95-4.98,3.69-15.3,9.27-29.7,17.06-43.34,1.55-2.72.68-4.8-.98-7.04l-19.44-26.32c-4.57-6.2-4.11-15.49,1.43-21l22.21-22.09c5.76-5.73,14.72-5.85,21.09-1.3l26.3,18.77c1.16.83,2.65,1.67,3.77,1.79,1.05.11,2.58-.78,3.78-1.51,13.44-8.27,27.56-14.41,42.82-18.32,3.18-.82,4.24-2.45,4.75-5.5l5.33-31.37c1.38-8.15,8.84-13.31,16.75-13.58l4.34-.14.87-.14-.87.14ZM147.68,259.25c.03,36.59,26.1,58.78,60.77,62.95l.03,29.36c.03.72,1.46.55,1.81,1.1h21s1.5-1,1.5-1l.08-29.07c16.85-1.5,32.89-7.57,45.08-19.28s16.84-28.82,15.27-45.68c-1.19-12.76-6.9-23.94-16.81-32.37-7.74-6.58-16.43-11.26-26-14.61l-17.6-6.16.02-53.48c8.24,1.41,14.04,7.1,17.26,14.25,1.98,4.41,2.66,9.06,2.79,14.42h38.3c.8-34.51-24.02-57.73-58.32-60.9l-.12-28.81-24.37-.02-.05,28.52c-1.29.67-2.56.85-3.92,1.06-26.48,4.03-48.49,19.92-51.83,47.84-1.56,13.07.49,26.12,7.95,37.14,10.86,16.03,30.09,23.67,47.85,29.28v55.85c-7.39-1.84-13.17-6.05-17.21-12.36-3.13-5.4-4.59-11.45-4.91-18.07l-38.59.06Z"/>
      <path class="st2" d="M147.68,259.25l38.59-.06c.32,6.62,1.78,12.67,4.91,18.07,4.03,6.31,9.82,10.52,17.2,12.36v-55.85c-17.75-5.62-36.98-13.25-47.84-29.28-7.46-11.01-9.51-24.06-7.95-37.14,3.34-27.92,25.35-43.8,51.83-47.84,1.36-.21,2.63-.39,3.92-1.06l.05-28.52,24.37.02.12,28.81c34.3,3.17,59.12,26.39,58.32,60.91h-38.3c-.13-5.37-.81-10.01-2.79-14.43-3.22-7.15-9.01-12.84-17.26-14.25l-.02,53.48,17.6,6.16c9.57,3.35,18.26,8.03,26,14.61,9.9,8.43,15.62,19.61,16.81,32.37,1.57,16.86-2.54,33.44-15.27,45.68s-28.22,17.78-45.08,19.28l-.08,29.07-1.5.99h-21c-.35-.55-1.78-.37-1.81-1.1l-.03-29.36c-34.68-4.16-60.74-26.36-60.77-62.95ZM208.34,196.54l.08-45.45c-9.21,1.58-15.57,8.6-17.04,17.6-2.17,13.29,4.1,22.82,16.96,27.84ZM249.59,280.66c5.56-7.79,6.35-18.92,1.22-26.86-4.06-6.28-10.79-9.61-17.93-12v48.89c6.57-1.58,12.57-4.24,16.7-10.03Z"/>
      <path class="st0" d="M249.59,280.66c-4.14,5.8-10.13,8.45-16.7,10.03v-48.89c7.13,2.39,13.87,5.72,17.93,12,5.13,7.94,4.33,19.07-1.22,26.86Z"/>
      <path class="st0" d="M208.34,196.54c-12.87-5.02-19.13-14.56-16.96-27.84,1.47-9,7.83-16.03,17.04-17.6l-.08,45.45Z"/>
    </g>
    <g>
      <path class="st3" d="M252.55,104.45c50.16,14.75,85.61,60.3,87.29,113.15.1,3.12-.05,6.19-.27,9.38-3.48,51-38.53,94.3-87.03,108.53"/>
      <path class="st3" d="M187.93,104.45c-48.48,14.1-84.01,58.19-87.01,108.98-3.36,57,36.16,109.24,91.35,123.53"/>
      <path class="st3" d="M210.23,8.14l.87-.14,23.45.24c8.22.08,15.95,5.27,17.37,13.62l5.33,31.37c.53,3.11,1.53,4.64,4.75,5.47,15.24,3.94,29.38,10.09,42.81,18.34,1.21.74,2.73,1.63,3.78,1.52,1.13-.12,2.61-.97,3.77-1.8l26.27-18.78c6.45-4.61,15.27-4.5,21.13,1.33l22.16,22.04c6.09,6.06,5.68,15.64.75,22.23l-18.76,25.11c-1.66,2.22-2.47,4.41-.95,7.06,7.7,13.43,13.24,27.66,16.89,42.77.8,3.31,2.26,5.17,5.69,5.72l33.73,5.36c6.82,1.08,13.6,6.81,13.63,14.25l.13,32.94c.03,7.77-6.41,14-13.83,15.16l-33.12,5.19c-3.96.62-5.56,2.09-6.62,6.03-3.92,14.56-9.81,28.31-17.7,41.09-1.34,2.17-.7,3.99.64,5.85l20.72,28.61c4.35,6.01,4.55,15-.84,20.46l-22.05,22.34c-5.97,6.05-16.04,6.28-22.69,1.26l-26.89-20.32c-2.75-2.08-5.12-2.17-8.16-.38-14.17,8.34-29.19,14.56-44.91,17.84l-.53.27-.52,9.96-4.63,29.09c-1.33,8.35-8.85,13.33-16.72,14.22-3.11.35-5.67-.02-8.62.04l-12,.25-7.34-.26c-10.36-.37-17.33-7.66-18.82-17.61l-3.93-26.3c-.48-3.18.35-6.28-.71-9.6-15.94-3.3-30.64-9.48-44.66-17.62-3.17-1.84-5.73-2.22-8.73.07l-25.05,19.14c-7.01,5.36-17.28,7.08-23.96.35l-22.59-22.75c-5.19-5.23-5.31-14.13-1.15-19.9l21.04-29.14c1.32-1.83,1.96-3.75.64-5.88-7.93-12.8-13.79-26.5-17.7-41.08-1.05-3.92-2.72-5.41-6.64-6.03l-33.13-5.19c-7.41-1.16-13.86-7.36-13.83-15.17l.13-32.93c.03-7.44,6.81-13.15,13.63-14.25l34.3-5.52c2.87-.46,4.28-2.21,4.95-4.98,3.69-15.3,9.27-29.7,17.06-43.34,1.55-2.72.68-4.8-.98-7.04l-19.44-26.32c-4.57-6.2-4.11-15.49,1.43-21l22.21-22.09c5.76-5.73,14.72-5.85,21.09-1.3l26.3,18.77c1.16.83,2.65,1.67,3.77,1.79,1.05.11,2.58-.78,3.78-1.51,13.44-8.27,27.56-14.41,42.82-18.32,3.18-.82,4.24-2.45,4.75-5.5l5.33-31.37c1.38-8.15,8.84-13.31,16.75-13.58l4.34-.14.87-.14-.87.14Z"/>
    </g>
  </g>
  <line class="st3" x1="317.59" y1="151.09" x2="124.26" y2="290.69"/>
</svg>
